<?xml version="1.0" encoding="utf-8"?>
<!-- Generator: Adobe Illustrator 16.0.0, SVG Export Plug-In . SVG Version: 6.00 Build 0)  -->
<!DOCTYPE svg PUBLIC "-//W3C//DTD SVG 1.1//EN" "http://www.w3.org/Graphics/SVG/1.1/DTD/svg11.dtd">
<svg version="1.1" id="Layer_1" xmlns="http://www.w3.org/2000/svg" xmlns:xlink="http://www.w3.org/1999/xlink" x="0px" y="0px"
	 width="512px" height="512px" viewBox="0 0 512 512" enable-background="new 0 0 512 512" xml:space="preserve">
<g>
	<path fill-rule="evenodd" clip-rule="evenodd" d="M290.171,23.01c8.273,1.717,16.662,3.011,24.797,5.232
		c20.238,5.531,37.611,15.505,50.563,32.663c8.782,11.631,13.064,25.033,13.488,38.862c1.209,39.486,0.902,79.018,1.5,118.525
		c0.158,10.459-0.455,21.516,2.693,31.19c3.505,10.763,10.535,20.487,16.707,30.238c5.635,8.897,5.809,11.202-1.954,17.978
		c-11.995,10.471-24.011,20.92-36.081,31.302c-8.331,7.165-13.918,7.442-21.429-0.271c-9.469-9.725-18.221-20.146-27.824-30.876
		c-3.067,2.911-6.709,6.307-10.282,9.771c-28.502,27.633-63.14,33.729-100.423,26.577c-34.521-6.615-56.768-33.168-60.135-68.454
		c-5.051-52.933,18.996-90.326,69.304-107.567c26.873-9.211,54.836-12.358,82.97-13.902c7.591-0.416,10.028-2.92,9.14-10.194
		c-0.791-6.478-0.582-13.072-1.231-19.571c-2.424-24.28-18.817-36.842-43.079-32.795c-19.245,3.208-33.155,12.827-37.835,32.978
		c-1.818,7.834-6.223,11.227-14.884,9.841c-15.141-2.423-30.454-3.768-45.665-5.786c-8.828-1.172-11-4.634-9.298-13.378
		c9.132-46.894,41.541-68.743,84.836-78.827c6.04-1.407,12.184-2.369,18.278-3.536C266.275,23.01,278.222,23.01,290.171,23.01z
		 M302.715,185.591c-15.18,2.155-29.797,2.695-43.506,6.5c-27.132,7.527-39.641,26.942-37.749,55.094
		c1,14.879,6.313,27.563,21.096,33.17c15.195,5.764,28.451,0.433,39.727-10.294c3.049-2.899,5.598-6.433,7.906-9.979
		C304.739,237.735,303.553,212.77,302.715,185.591z"/>
	<g>
		<g>
			<path fill-rule="evenodd" clip-rule="evenodd" fill="#FF9900" d="M0,384.871c3.61,0.209,7.908-0.794,10.727,0.807
				c52.898,30.053,109.197,50.366,169.352,59.699c92.824,14.402,182.872,4.462,269.934-31.184c1.838-0.754,3.88-2.387,5.486-2.041
				c3.709,0.812,7.784,1.94,10.474,4.334c0.893,0.793-1.087,7.082-3.322,8.718c-8.458,6.193-17.307,11.962-26.462,17.077
				c-46.824,26.162-97.213,40.646-150.55,45.256c-2.496,0.217-4.944,0.957-7.416,1.453c-15.362,0-30.723,0-46.085,0
				c-2.479-0.482-4.943-1.249-7.444-1.409c-32.824-2.115-64.599-9.16-95.558-20.115C80.845,450.379,38.22,423.859,0,389.991
				C0,388.284,0,386.577,0,384.871z"/>
			<path fill-rule="evenodd" clip-rule="evenodd" fill="#FF9900" d="M415.594,393.855c2.396-2.407,4.402-5.509,7.251-7.113
				c25.462-14.333,52.509-16.965,80.659-10.096c5.685,1.387,8.632,5.282,8.491,11.169c-0.695,29.573-10.171,55.593-31.657,76.506
				c-1.838,1.789-5.309,1.902-8.02,2.793c0.131-2.844-0.343-5.88,0.49-8.502c4.721-14.838,10.503-29.38,14.46-44.406
				c3.77-14.311-0.478-20.1-15.229-20.429c-15.253-0.338-30.549,1.327-45.826,2.145c-3.018,0.162-6.028,0.444-9.042,0.674
				C416.646,395.682,416.118,394.769,415.594,393.855z"/>
		</g>
	</g>
</g>
</svg>
