<?xml version="1.0" encoding="utf-8"?>
<!-- Generator: Adobe Illustrator 16.0.0, SVG Export Plug-In . SVG Version: 6.00 Build 0)  -->
<!DOCTYPE svg PUBLIC "-//W3C//DTD SVG 1.1//EN" "http://www.w3.org/Graphics/SVG/1.1/DTD/svg11.dtd">
<svg version="1.1" id="Layer_1" xmlns="http://www.w3.org/2000/svg" xmlns:xlink="http://www.w3.org/1999/xlink" x="0px" y="0px"
	 width="512px" height="512px" viewBox="0 0 512 512" enable-background="new 0 0 512 512" xml:space="preserve">
<g>
	<path fill-rule="evenodd" clip-rule="evenodd" fill="#231F20" d="M249.539,421.994c-47.39-1.302-98.788-12.867-143.039-46.67
		c-43.638-33.332-59.448-81.022-41.649-124.47c9.828-23.997,26.87-42.207,47.742-57.1c78.02-55.676,209.846-56.008,288.063-0.395
		c31.41,22.333,54.188,50.603,55.3,91.145c1.082,39.443-19.488,68.116-49.098,91.202
		C368.768,405.41,313.633,422.069,249.539,421.994z"/>
	<path fill-rule="evenodd" clip-rule="evenodd" fill="#231F20" d="M11.305,227.934c8.234,105.329,88.354,192.213,196.271,209.121
		c103.649,16.246,190.994-13.627,254.906-99.871c26.955-36.376,38.657-78.371,39.461-123.753
		c9.879,26.78,12.184,54.461,8.209,82.297c-15.33,107.375-100.348,191.622-209.109,206.382
		c-104.175,14.137-192.516-15.926-257.336-100.86C3.336,348.346-8.798,287.479,6.187,221.955
		C11.938,220.484,9.093,226.373,11.305,227.934z"/>
	<path fill-rule="evenodd" clip-rule="evenodd" fill="#231F20" d="M479.234,268.856C473.844,135.776,356.343,58.322,243.357,64.65
		C128.19,71.104,34.34,157.739,34.092,269.901c-8.023-19.99-10.136-41.061-8.382-62.326
		c7.879-95.557,73.031-169.052,171.043-193.653c94.638-23.752,196.133,11.032,251.11,87.056
		C484.504,151.651,495.398,207.756,479.234,268.856z"/>
</g>
</svg>
