<svg xmlns="http://www.w3.org/2000/svg" width="23.659" height="21.031" viewBox="0 0 23.659 21.031">
  <path id="Icon_metro-shop" data-name="Icon metro-shop" d="M10.847,11.528l1.04-6.9H6.479L4.22,10.542a2.073,2.073,0,0,0-.106.657c0,1.451,1.512,2.629,3.379,2.629a3.206,3.206,0,0,0,3.354-2.3Zm5.1,2.3c1.866,0,3.379-1.178,3.379-2.629,0-.054,0-.108-.007-.159l-.669-6.413H13.239l-.67,6.408c0,.054-.005.108-.005.164,0,1.451,1.513,2.629,3.379,2.629ZM22.515,15.2v5.2H9.371V15.211a5.53,5.53,0,0,1-1.878.326,5.419,5.419,0,0,1-.751-.064v8.345a1.844,1.844,0,0,0,1.838,1.84H23.3a1.846,1.846,0,0,0,1.84-1.84V15.474a5.647,5.647,0,0,1-.751.064A5.462,5.462,0,0,1,22.515,15.2Zm5.152-4.661L25.405,4.627H20l1.038,6.89a3.2,3.2,0,0,0,3.356,2.311c1.866,0,3.379-1.178,3.379-2.629a2.111,2.111,0,0,0-.105-.657Z" transform="translate(-4.113 -4.627)" fill="#707070"/>
</svg>
