<?xml version="1.0" encoding="utf-8"?>
<!-- Generator: Adobe Illustrator 22.0.0, SVG Export Plug-In . SVG Version: 6.00 Build 0)  -->
<svg version="1.1" id="Capa_1" xmlns="http://www.w3.org/2000/svg" xmlns:xlink="http://www.w3.org/1999/xlink" x="0px" y="0px"
	 viewBox="0 0 615 612" style="enable-background:new 0 0 615 612;" xml:space="preserve">
<g>
	<path d="M393.1,229.4c1.4,0,2.9-0.5,4.2-0.1c22.7,6.4,45.4,13,68.1,19.5c20.6,5.9,41.2,11.6,61.7,17.7c2.8,0.8,5.7,2.6,7.6,4.7
		c14.8,16.3,29.3,32.9,43.9,49.3c5.9,6.7,11.9,13.4,17.9,20c5.9,6.5,5.6,10.8-1.9,15.7c-2.8,1.8-5.9,3.2-9.1,4.3
		c-15.4,5.4-30.8,10.6-46.2,15.8c-3.2,1.1-4.2,2.6-4.2,6c0.1,43.7,0,87.3,0,131c0,7.5-1,9-8,11.7c-40.6,15.4-81.1,30.9-121.7,46.2
		c-12.5,4.7-25.3,8.8-37.9,13.5c-16.7,6.3-33.4,12.7-49.9,19.6c-7.2,3-13.5,2.7-20.6-0.1c-30.2-11.7-60.5-23-90.8-34.4
		c-39.7-15-79.3-30-118.9-45.1c-5.9-2.2-7.3-4.1-7.3-10.4c0-43.2-0.1-86.5,0.1-129.7c0-5.3-1.5-7.6-6.6-9.2
		c-15-4.7-29.9-9.6-44.5-15.2c-5-1.9-9.3-6-13.3-9.7c-3-2.8-0.8-5.9,1.4-8.5c8.7-9.8,17.4-19.5,26.1-29.3
		c12.1-13.6,24.2-27.2,36.5-40.6c2.5-2.8,6.1-5.3,9.7-6.3c39.3-11.4,78.6-22.4,118-33.6c4.2-1.2,8.4-2.8,12.7-3.6
		c1.8-0.3,4.3,0.4,5.8,1.6c4,3.3,7.6,7.2,12.4,11.7c-39,11.1-76.7,21.9-114.4,32.6c0,0.4,0,0.8,0.1,1.1c8.5,2.5,16.9,5,25.4,7.5
		c30.3,8.6,60.6,17.2,91,25.8c20.6,5.8,41.2,11.5,61.7,17.7c6.4,1.9,11.9-0.3,17.5-1.9c18.6-5.2,37.1-10.6,55.7-15.9
		c38.4-10.9,76.7-21.8,115.1-32.8c0.4-0.1,0.7-0.4,2-1c-2.4-0.8-4.1-1.5-5.8-2c-33.8-9.6-67.7-19.2-101.5-28.9
		c-1.6-0.5-3.1-1.2-4.7-1.9C384.5,238.1,388.8,233.7,393.1,229.4z M298.5,585.4c0-73.6,0-146.5,0-220.5c-1.6,1.7-2.5,2.6-3.2,3.6
		c-15,19.9-30,39.8-45.1,59.7c-3.7,4.9-6.9,5.9-12.2,4c-43.2-14.9-86.5-29.9-129.7-44.8c-3.3-1.1-6.6-2.1-10.3-3.2
		c-0.2,1.8-0.4,3.1-0.4,4.4c0,39.1,0,78.2-0.1,117.3c0,3.1,1.3,4.3,4,5.2c9.4,3.3,19.1,6.2,27.9,10.7c6.3,3.2,12.7,5.3,19.3,7.6
		c28.9,10,57.4,21.2,86,32c16.9,6.4,33.7,12.8,50.6,19.2C289.5,582.1,293.7,583.6,298.5,585.4z M316.7,585.4c4.6-1.7,8.8-3.3,13-4.8
		c24.2-9.1,48.5-18.3,72.7-27.4c14.5-5.5,29.1-11,43.6-16.4c22.5-8.5,45-17.1,67.5-25.4c3.5-1.3,4.3-3,4.3-6.4
		c-0.1-38.4-0.1-76.7-0.1-115.1c0-1.7-0.2-3.4-0.3-5.9c-6.6,2.3-12.4,4.5-18.3,6.5c-40.4,13.9-80.7,27.7-121.1,41.5
		c-6,2.1-9.5,1-13.4-4.2c-12.1-16.1-24.2-32.1-36.3-48.2c-3.6-4.7-7.2-9.4-11.6-15.2C316.7,438.8,316.7,511.7,316.7,585.4z
		 M292.6,342.3c-5.6-1.5-10.3-2.7-14.9-4c-19.7-5.6-39.5-11.2-59.2-16.8c-40.7-11.6-81.5-23.2-122.1-34.9c-3.5-1-5.6-0.3-7.9,2.3
		c-11.1,12.7-22.4,25.2-33.6,37.8c-5.1,5.8-10.3,11.6-15.8,17.8c7.4,2.6,14.2,5.1,20.9,7.4c35.6,12.3,71.3,24.5,106.9,36.7
		c22.4,7.7,44.8,15.4,67.1,23.3c3.7,1.3,5.7,0.6,8-2.5c11.6-15.5,23.3-30.9,35-46.3C281.9,356.6,286.9,349.9,292.6,342.3z
		 M576.1,344.7c-1.5-1.9-2.5-3.3-3.7-4.6c-13.8-15.5-27.9-30.6-41.2-46.5c-5.3-6.3-10.2-9.3-18-5.4c-1.3,0.6-2.8,0.8-4.2,1.3
		c-23.1,6.7-46.2,13.4-69.4,20c-31.9,9.1-63.8,18-95.7,27c-6.9,1.9-13.7,4-21.1,6.2c2.3,3.1,4.2,5.6,6.1,8.2
		c15.2,20,30.4,40,45.4,60c1.6,2.2,3.2,2.5,5.6,1.6c7-2.5,14.2-4.6,21.2-7c26.5-9.2,52.9-18.4,79.4-27.6
		c20.8-7.2,41.6-14.3,62.4-21.4C553.8,352.6,564.5,348.7,576.1,344.7z"/>
	<path d="M318.2,236.2c7.5-7.6,14.9-15.3,22.4-22.9c14.2-14.3,28.4-28.5,42.7-42.7c3.9-3.9,9.5-4.1,13-0.7c3.8,3.6,3.7,9.2-0.4,13.3
		c-25.9,26-51.9,52-77.9,77.9c-1.2,1.2-2.4,2.6-3.7,3.8c-4,3.8-9.5,3.9-13.4,0c-14.8-14.7-29.5-29.5-44.3-44.2
		c-12.4-12.4-24.7-24.7-37.1-37.1c-4.3-4.3-4.8-9.7-1-13.7c3.4-3.5,9.3-3.3,13.4,0.8c21.1,21,42.2,42.1,63.3,63.2
		c0.9,0.9,1.9,1.7,3.7,3.4c0-2.7,0-4.3,0-6c0-66.5,0-132.9,0-199.4c0-6.7,1.8-9.7,6.5-11c4.9-1.4,9.7,1.3,10.8,6.3
		c0.4,2,0.5,4.1,0.5,6.1c0,65.7,0,131.4,0,197.2c0,1.7,0.2,3.4,0.3,5.1C317.5,235.8,317.9,236,318.2,236.2z"/>
	<path d="M393.1,229.4c-4.3,4.4-8.6,8.7-12.9,13.1c-0.8-0.1-1.7-0.2-3.5-0.3c4.8-4.9,9.2-9.4,13.7-13.7
		C390.7,228.1,392.2,229,393.1,229.4z"/>
</g>
</svg>
