<svg id="Icon_ionic-ios-qr-scanner" data-name="Icon ionic-ios-qr-scanner" xmlns="http://www.w3.org/2000/svg" width="20.798" height="19.199" viewBox="0 0 20.798 19.199">
  <path id="Trazado_8" data-name="Trazado 8" d="M9.675,4.5H6.735a3.361,3.361,0,0,0-3.36,3.36V10.8a.7.7,0,1,0,1.4,0V7.81A2.035,2.035,0,0,1,6.685,5.9h2.99a.7.7,0,0,0,0-1.4Z" transform="translate(-3.375 -4.5)" fill="#707070"/>
  <path id="Trazado_9" data-name="Trazado 9" d="M26.471,4.5h-2.99a.7.7,0,0,0,0,1.4h2.99a2.035,2.035,0,0,1,1.91,1.91V10.8a.7.7,0,1,0,1.4,0V7.81A3.314,3.314,0,0,0,26.471,4.5Z" transform="translate(-8.982 -4.5)" fill="#707070"/>
  <path id="Trazado_10" data-name="Trazado 10" d="M9.675,27.256H6.685a2.035,2.035,0,0,1-1.91-1.91v-2.99a.7.7,0,0,0-1.4,0v2.99a3.314,3.314,0,0,0,3.31,3.31h2.99a.7.7,0,1,0,0-1.4Z" transform="translate(-3.375 -9.457)" fill="#707070"/>
  <path id="Trazado_11" data-name="Trazado 11" d="M29.081,21.656a.7.7,0,0,0-.7.7v2.99a2.035,2.035,0,0,1-1.91,1.91h-2.99a.7.7,0,0,0,0,1.4h2.94a3.364,3.364,0,0,0,3.36-3.36v-2.94A.7.7,0,0,0,29.081,21.656Z" transform="translate(-8.982 -9.457)" fill="#707070"/>
</svg>
