<svg xmlns="http://www.w3.org/2000/svg" width="25.284" height="25.374" viewBox="0 0 25.284 25.374">
  <path id="Icon_metro-cog" data-name="Icon metro-cog" d="M24.017,15.858a4.459,4.459,0,0,1,1.647-6.083L23.367,5.8a4.4,4.4,0,0,1-2.233.605A4.459,4.459,0,0,1,16.69,1.928H12.1A4.4,4.4,0,0,1,11.5,4.171,4.459,4.459,0,0,1,5.412,5.786l-2.3,3.978A4.4,4.4,0,0,1,4.756,11.4a4.459,4.459,0,0,1-1.637,6.077l2.3,3.978a4.4,4.4,0,0,1,2.223-.6,4.459,4.459,0,0,1,4.444,4.45h4.594a4.4,4.4,0,0,1,.593-2.219,4.459,4.459,0,0,1,6.081-1.621l2.3-3.978a4.4,4.4,0,0,1-1.631-1.626Zm-9.628,2.49a4.733,4.733,0,1,1,4.733-4.733A4.733,4.733,0,0,1,14.389,18.348Z" transform="translate(-1.746 -0.928)" fill="none" stroke="#707070" stroke-width="2"/>
</svg>
