<svg xmlns="http://www.w3.org/2000/svg" width="15.762" height="20.688" viewBox="0 0 15.762 20.688">
  <path id="Icon_material-lock-outline" data-name="Icon material-lock-outline" d="M13.881,17.262a1.97,1.97,0,1,0-1.97-1.97A1.976,1.976,0,0,0,13.881,17.262ZM19.792,8.4h-.985V6.426a4.926,4.926,0,1,0-9.851,0V8.4H7.97A1.976,1.976,0,0,0,6,10.366v9.851a1.976,1.976,0,0,0,1.97,1.97H19.792a1.976,1.976,0,0,0,1.97-1.97V10.366A1.976,1.976,0,0,0,19.792,8.4Zm-8.965-1.97a3.054,3.054,0,1,1,6.108,0V8.4H10.827Zm8.965,13.792H7.97V10.366H19.792Z" transform="translate(-6 -1.5)" fill="#d2d2d2"/>
</svg>
