<?xml version="1.0" encoding="utf-8"?>
<!-- Generator: Adobe Illustrator 22.0.0, SVG Export Plug-In . SVG Version: 6.00 Build 0)  -->
<svg version="1.1" id="Capa_1" xmlns="http://www.w3.org/2000/svg" xmlns:xlink="http://www.w3.org/1999/xlink" x="0px" y="0px"
	 viewBox="0 0 615 612" style="enable-background:new 0 0 615 612;" xml:space="preserve">
<g>
	<path d="M204.1,579.2c-101.8,0.1-184.7-82.4-184.7-184.1c0-101.1,82.6-183.7,183.9-183.8c101.1-0.1,183.9,82.3,183.9,183
		C387.4,496.4,305.5,579,204.1,579.2z M202.6,544.9c82.5,0.3,150.3-66.3,150.7-147.9c0.4-86.4-68.3-151.1-148.9-151.7
		C122,244.8,54.1,311.8,53.7,393.3C53.4,477.3,119.5,544.6,202.6,544.9z"/>
	<path d="M287.5,579.1c9.8-5.7,18.5-10.9,27.4-15.9c1.7-0.9,4-1,6.1-1c61.2-0.1,122.3-0.1,183.5-0.2c31.9,0,54.4-22.5,54.4-54.4
		c0-113.6,0-227.2,0-340.8c0-6.9,0-6.9-6.7-6.9c-14.9,0-29.8,0.1-44.7,0c-39.1-0.3-69.3-30.6-69.6-69.8c-0.1-14.9,0-29.8,0-44.7
		c0-1.8,0-3.5,0-5.8c-2.2-0.1-3.9-0.2-5.6-0.2c-67.6,0-135.3,0-202.9,0c-29.9,0-52.8,22.9-52.9,52.9c-0.2,32.2-0.1,64.4-0.2,96.6
		c0,1.9,0,3.9,0,6.2c-5.6,1-10.9,2-16.7,3c0-2.4,0-4.3,0-6.2c0-33.2,0-66.4,0.1-99.5c0.1-39.7,30.6-70.1,70.2-70.2
		c70.7,0,141.4,0,212.2-0.1c5.6,0,9.7,1.7,13.7,5.7c38.4,38.5,76.9,76.9,115.5,115.2c3.3,3.3,4.9,6.9,4.9,11.6
		c-0.1,118,0,236-0.1,353.9c0,39.9-30.7,70.4-70.5,70.4c-70.9,0-141.8,0-212.6,0C291.4,579.1,290,579.1,287.5,579.1z M544.2,142.9
		c-29.5-29.7-59.2-59.6-88.9-89.5c-0.1,0.3-0.3,0.9-0.3,1.5c0,12.8-0.4,25.6,0.1,38.3c1,27.2,23.4,49.1,50.6,49.7
		c8.6,0.2,17.1,0.1,25.7,0.1C536.1,142.9,540.7,142.9,544.2,142.9z"/>
	<path d="M497.6,249.1c-2.2,0-3.9,0-5.7,0c-48.2,0-96.4,0.1-144.7-0.1c-2.7,0-5.8-1.4-8.1-3.1c-5.5-4.1-10.7-8.7-16.4-13.6
		c58.6,0,116.5,0,174.8,0C497.6,237.8,497.6,243.1,497.6,249.1z"/>
	<path d="M497.6,476.2c0,5.5,0,10.8,0,16.3c-39,0-77.8,0-117.2,0c2.6-5.4,4.9-10.4,7.5-15.4c0.4-0.8,2.1-1.4,3.2-1.4
		c34.9-0.1,69.8,0,104.7,0C496.2,475.7,496.7,475.9,497.6,476.2z"/>
	<path d="M388.1,313.5c36.7,0,72.9,0,109.4,0c0,5.4,0,10.6,0,16.4c-1.7,0.1-3.4,0.4-5.1,0.4c-31.1,0-62.3,0-93.4,0
		c-3.3,0-5.2-1-6.2-4.5C391.6,321.8,389.8,318,388.1,313.5z"/>
	<path d="M497.9,394.9c0,4.7,0.2,9.1-0.1,13.4c-0.1,1.1-1.9,3.1-2.9,3.1c-29.7,0.1-59.5,0-89.2-0.1c-0.1,0-0.3-0.2-0.6-0.4
		c0-5.1,0-10.3,0-16C436,394.9,466.6,394.9,497.9,394.9z"/>
	<path d="M207.8,415.3c-5.3,2.6-9,5.6-13,6.2c-6.4,1-11.5-5.2-11.2-12.8c0.2-5.1-0.7-8.8-6-11.1c-5.5-2.4-7.6-7.3-6.8-12.2
		c0.8-5,4.3-8.1,10.3-9.4c0.6-0.1,1.2-0.3,2.3-0.6c0-1.9,0-3.8,0-5.7c0-23.6,0-47.2,0-70.8c0-6.3,2.7-10.6,7.6-12.3
		c4.6-1.6,10-0.3,12.5,3.8c1.6,2.6,2.5,6,2.5,9.1c0.2,27.2,0.3,54.3,0,81.5c-0.1,5.7,1.8,8.5,6.6,11.2
		c23.7,13.3,47.2,26.9,70.6,40.7c3.1,1.8,6,5.1,7.4,8.3c1.8,4.3,0,8.6-3.9,11.6c-4.2,3.2-8.7,3-13.2,0.5
		c-11.4-6.5-22.7-13.1-34-19.6C228.5,427.3,217.4,420.9,207.8,415.3z"/>
</g>
</svg>
