<?xml version="1.0" encoding="utf-8"?>
<!-- Generator: Adobe Illustrator 22.0.0, SVG Export Plug-In . SVG Version: 6.00 Build 0)  -->
<svg version="1.1" id="Capa_1" xmlns="http://www.w3.org/2000/svg" xmlns:xlink="http://www.w3.org/1999/xlink" x="0px" y="0px"
	 viewBox="0 0 615 612" style="enable-background:new 0 0 615 612;" xml:space="preserve">
<g>
	<g>
		<path d="M122.3,598.3c-16.2-7.1-22-19.4-21.9-37.1c0.4-170.1,0.4-340.3,0-510.4c0-17.7,5.7-30,21.9-37.1c101.3,0,202.6,0,304,0
			c43.8,44.1,87.5,88.3,131.7,132.1c7.1,7,9.7,14.2,9.6,23.9c-0.2,130.1-0.4,260.2,0.1,390.3c0.1,18-5.1,31-21.9,38.3
			C404.6,598.3,263.5,598.3,122.3,598.3z M119.7,306.2c0,85.2,0,170.5,0,255.7c0,14.9,2.3,17.3,17.3,17.3
			c131.5,0.1,263.1,0,394.6,0.1c11.9,0,17-4,17-16.7c-0.3-129.8-0.1-259.6-0.5-389.4c0-5.6-3.1-12.6-7.1-16.6
			c-38.2-38.9-76.7-77.5-115.7-115.6c-4.6-4.5-12.5-8-18.8-8.1c-89.1-0.5-178.3-0.4-267.4-0.3c-17.8,0-19.4,1.6-19.4,19.1
			C119.7,136.6,119.7,221.4,119.7,306.2z"/>
		<path d="M334.2,247.6c-39.3,0-78.7,0-118,0c-3.9,0-8.5,0.8-11.4-1c-3.1-1.9-6.1-6.3-6.3-9.8c-0.1-2.5,4.1-6.3,7.1-7.5
			c3.4-1.4,7.6-0.7,11.5-0.7c77.8,0,155.6,0,233.4,0c3,0,6.6-1,8.9,0.3c4,2.2,7.1,5.9,10.6,8.9c-3.4,3.2-6.4,7.1-10.3,9.5
			c-2.2,1.4-5.9,0.3-8.9,0.3C412,247.6,373.1,247.6,334.2,247.6z"/>
		<path d="M334.2,306.6c40.2,0,80.4,0,120.6,0c7.1,0,15.4-0.4,15.1,9.4c-0.2,9.2-8,9.5-15.4,9.5c-80.4-0.1-160.8-0.1-241.2,0
			c-7.4,0-15.1-0.5-15.1-9.8c0-9.9,8.4-9.1,15.4-9.1C253.8,306.6,294,306.6,334.2,306.6z"/>
		<path d="M334.1,384.4c38.9,0,77.8,0,116.7,0c3.5,0,7.5-1,10.2,0.5c3.6,2,8.6,6,8.5,9c-0.1,3.2-5,6.9-8.6,9.2
			c-2.2,1.4-5.9,0.4-8.9,0.4c-78.7,0-157.3,0-236,0c-3.4,0-7.6,0.9-10.2-0.6c-3.3-1.9-7.3-5.9-7.3-9c0-3,4.1-6.9,7.4-8.7
			c2.7-1.5,6.7-0.6,10.2-0.6C255.4,384.3,294.7,384.4,334.1,384.4z"/>
		<path d="M457.5,169.6c-10.4,0-20.7,0.1-31.1,0c-22.1-0.2-33.7-11.6-33.8-33.4c-0.1-22.5,0.1-44.9-0.1-67.4
			c0-7.4,0.4-15.2,9.4-15.6c9.8-0.5,9.6,7.8,9.7,14.9c0,21.2,0,42.3,0,63.5c0.1,16.7,2.1,18.8,18.4,18.9c21.6,0.1,43.2,0,64.8,0
			c6.8,0,14.1,0.5,14.1,9.3c0,8.5-6.6,9.9-13.8,9.8C482.5,169.5,470,169.6,457.5,169.6z"/>
	</g>
	<path d="M185.7,72.2l7.7,15.7l2.6,5.2l5.8,0.8l17.3,2.5l-12.5,12.2l-4.2,4.1l1,5.8l3,17.2l-15.5-8.1l-5.2-2.7l-5.2,2.7l-15.5,8.1
		l3-17.2l1-5.8l-4.2-4.1l-12.5-12.2l17.3-2.5l5.8-0.8l2.6-5.2L185.7,72.2 M185.7,47.1L168,83l-39.6,5.8l28.7,27.9l-6.8,39.5
		l35.4-18.6l35.4,18.6l-6.8-39.5L243,88.7L203.4,83L185.7,47.1L185.7,47.1z"/>
</g>
</svg>
