<?xml version="1.0" encoding="utf-8"?>
<!-- Generator: Adobe Illustrator 16.0.0, SVG Export Plug-In . SVG Version: 6.00 Build 0)  -->
<!DOCTYPE svg PUBLIC "-//W3C//DTD SVG 1.1//EN" "http://www.w3.org/Graphics/SVG/1.1/DTD/svg11.dtd">
<svg version="1.1" id="Layer_1" xmlns="http://www.w3.org/2000/svg" xmlns:xlink="http://www.w3.org/1999/xlink" x="0px" y="0px"
	 width="512px" height="512px" viewBox="0 0 512 512" enable-background="new 0 0 512 512" xml:space="preserve">
<g>
	<path fill="#060E9F" d="M512,246.261c0-92.242-114.609-167.437-255.991-167.437c-141.374,0-255.98,75.194-255.98,167.437
		c0,2.38-0.029,8.967-0.029,9.803c0,97.856,100.172,177.112,255.977,177.112c156.77,0,256.023-79.234,256.023-177.095
		C512,252.66,512,250.693,512,246.261z"/>
	<path fill="#00ADEE" d="M502.197,246.178c0,86.963-110.198,157.461-246.142,157.461c-135.939,0-246.134-70.498-246.134-157.461
		c0-86.97,110.195-157.468,246.134-157.468C391.999,88.709,502.197,159.208,502.197,246.178z"/>
	<g>
		<path fill="#FFFFFF" d="M174.329,196.498c-0.13,0.249-2.586,2.788-0.994,4.83c3.886,4.962,15.882,7.808,28.015,5.088
			c7.224-1.624,16.482-8.988,25.453-16.104c9.72-7.725,19.364-15.456,29.059-18.532c10.264-3.266,16.84-1.865,21.187-0.551
			c4.768,1.423,10.371,4.56,19.313,11.269c16.843,12.662,84.564,71.772,96.265,81.993c9.425-4.257,51.307-22.288,108.221-34.831
			c-4.944-30.345-23.4-58.103-51.394-80.834c-39.012,16.386-86.692,24.935-133.314,2.164c-0.237-0.097-25.472-12.039-50.359-11.452
			c-36.992,0.857-53.018,16.869-69.976,33.816L174.329,196.498z"/>
		<path fill="#FFFFFF" d="M389.875,270.918c-0.793-0.705-79.628-69.688-97.49-83.113c-10.335-7.749-16.083-9.727-22.118-10.497
			c-3.145-0.407-7.483,0.177-10.52,1.008c-8.308,2.262-19.169,9.525-28.817,17.171c-9.986,7.955-19.403,15.446-28.137,17.401
			c-11.163,2.503-24.794-0.45-31.014-4.656c-2.521-1.692-4.293-3.651-5.146-5.644c-2.297-5.326,1.941-9.586,2.637-10.299
			l21.755-23.531c2.528-2.524,5.078-5.049,7.682-7.537c-7.019,0.915-13.509,2.708-19.825,4.466
			c-7.883,2.218-15.464,4.325-23.134,4.321c-3.202,0-20.358-2.813-23.613-3.698c-19.688-5.388-36.967-10.635-62.777-22.685
			c-30.928,23.022-51.609,51.812-57.584,83.521c4.444,1.174,11.604,3.306,14.61,3.972c69.99,15.562,91.788,31.594,95.742,34.939
			c4.282-4.765,10.455-7.778,17.352-7.778c7.746,0.011,14.722,3.899,18.964,9.914c4.008-3.166,9.536-5.87,16.681-5.866
			c3.245,0,6.612,0.601,10.012,1.757c7.897,2.708,11.971,7.966,14.085,12.724c2.65-1.196,5.905-2.078,9.741-2.067
			c3.767,0,7.688,0.86,11.639,2.567c12.903,5.539,14.913,18.212,13.742,27.77c0.919-0.108,1.845-0.151,2.784-0.151
			c15.298,0.011,27.744,12.446,27.737,27.755c0,4.735-1.211,9.19-3.317,13.102c4.163,2.341,14.776,7.635,24.093,6.453
			c7.443-0.937,10.271-3.482,11.282-4.912c0.691-0.986,1.427-2.136,0.746-2.96l-19.75-21.939c0,0-3.252-3.075-2.179-4.26
			c1.117-1.218,3.123,0.529,4.545,1.718c10.051,8.395,22.324,21.061,22.324,21.061c0.205,0.137,1.02,1.742,5.557,2.557
			c3.907,0.698,10.818,0.291,15.608-3.641c1.21-0.994,2.416-2.233,3.425-3.512c-0.08,0.062-0.145,0.147-0.22,0.177
			c5.049-6.461-0.559-13.001-0.559-13.001l-23.056-25.889c0,0-3.298-3.047-2.179-4.275c1.005-1.063,3.126,0.544,4.57,1.743
			c7.3,6.104,17.614,16.454,27.499,26.138c1.931,1.412,10.62,6.789,22.123-0.771c6.979-4.577,8.384-10.202,8.186-14.448
			c-0.486-5.618-4.869-9.619-4.869-9.619l-31.496-31.662c0,0-3.324-2.841-2.15-4.278c0.962-1.21,3.122,0.533,4.537,1.718
			c10.037,8.395,37.194,33.294,37.194,33.294c0.385,0.273,9.77,6.954,21.366-0.429c4.145-2.65,6.795-6.647,7.022-11.286
			C395.561,275.701,389.875,270.918,389.875,270.918z"/>
		<path fill="#FFFFFF" d="M237.12,311.058c-4.883-0.058-10.224,2.842-10.922,2.42c-0.386-0.256,0.299-2.218,0.756-3.349
			c0.468-1.124,6.9-20.474-8.776-27.193c-11.995-5.157-19.328,0.645-21.849,3.263c-0.662,0.685-0.958,0.63-1.033-0.245
			c-0.241-3.482-1.801-12.91-12.154-16.068c-14.798-4.53-24.313,5.798-26.725,9.525c-1.081-8.435-8.211-14.981-16.944-14.988
			c-9.489-0.011-17.186,7.678-17.196,17.163c-0.003,9.486,7.689,17.178,17.175,17.178c4.613,0.011,8.794-1.833,11.877-4.793
			c0.097,0.09,0.137,0.252,0.086,0.58c-0.72,4.246-2.053,19.685,14.113,25.969c6.482,2.517,11.996,0.645,16.566-2.561
			c1.361-0.962,1.584-0.555,1.39,0.724c-0.583,3.969,0.155,12.471,12.071,17.304c9.068,3.685,14.434-0.086,17.949-3.335
			c1.53-1.396,1.948-1.17,2.027,0.987c0.432,11.488,9.976,20.61,21.564,20.62c11.941,0.012,21.618-9.644,21.621-21.578
			C258.728,320.738,249.059,311.188,237.12,311.058z"/>
	</g>
	<path fill="#060E9F" d="M392.925,262.66c-24.283-21.193-80.408-69.986-95.609-81.395c-8.683-6.533-14.606-9.983-19.807-11.531
		c-2.334-0.706-5.567-1.509-9.73-1.513c-3.864,0-8.017,0.698-12.353,2.078c-9.824,3.107-19.609,10.886-29.076,18.409l-0.486,0.386
		c-8.819,7.008-17.931,14.261-24.827,15.802c-3.011,0.677-6.107,1.026-9.194,1.026c-7.725-0.011-14.664-2.24-17.264-5.557
		c-0.429-0.548-0.155-1.437,0.85-2.715l0.133-0.17l21.363-23.022c16.73-16.731,32.537-32.53,68.917-33.365
		c0.598-0.019,1.213-0.029,1.814-0.029c22.645,0.015,45.282,10.152,47.821,11.326c21.232,10.357,43.146,15.618,65.179,15.637
		c22.962,0.007,46.65-5.676,71.557-17.146c-2.78-2.341-5.676-4.617-8.653-6.85c-21.882,9.485-42.729,14.278-62.842,14.271
		c-20.542-0.018-41.068-4.952-60.994-14.675c-1.052-0.501-26.048-12.288-52.057-12.299c-0.681,0-1.372,0.011-2.053,0.021
		c-30.557,0.717-47.771,11.567-59.345,21.075c-11.258,0.273-20.97,2.989-29.613,5.401c-7.71,2.143-14.369,4.001-20.865,3.998
		c-2.676,0-7.491-0.245-7.923-0.26c-7.469-0.227-45.099-9.457-75.032-20.79c-3.057,2.164-5.996,4.397-8.859,6.673
		c31.27,12.82,69.324,22.738,81.334,23.513c3.342,0.22,6.903,0.598,10.465,0.605c7.944,0,15.874-2.229,23.549-4.376
		c4.53-1.274,9.532-2.657,14.794-3.666c-1.404,1.379-2.806,2.776-4.21,4.185L168.2,191.19c-1.707,1.725-5.417,6.327-2.972,11.995
		c0.973,2.287,2.946,4.474,5.708,6.335c5.172,3.482,14.434,5.838,23.037,5.845c3.26,0.004,6.35-0.324,9.19-0.961
		c9.097-2.042,18.641-9.645,28.753-17.683c8.056-6.399,19.5-14.527,28.263-16.915c2.448-0.666,5.455-1.08,7.872-1.08
		c0.724,0.007,1.404,0.028,2.038,0.119c5.791,0.734,11.387,2.704,21.381,10.205c17.815,13.383,96.661,82.357,97.432,83.038
		c0.054,0.043,5.081,4.379,4.731,11.589c-0.187,4.019-2.42,7.591-6.298,10.065c-3.364,2.136-6.839,3.223-10.351,3.223
		c-5.269-0.011-8.898-2.478-9.133-2.646c-0.291-0.238-27.305-25.007-37.24-33.326c-1.584-1.311-3.122-2.492-4.678-2.492
		c-0.832-0.007-1.566,0.35-2.063,0.973c-1.566,1.927,0.188,4.595,2.251,6.353l31.554,31.716c0.043,0.032,3.933,3.681,4.357,8.546
		c0.249,5.258-2.265,9.655-7.49,13.08c-3.724,2.452-7.494,3.698-11.186,3.698c-4.844,0-8.247-2.208-9-2.729l-4.526-4.462
		c-8.272-8.139-16.814-16.556-23.066-21.773c-1.523-1.268-3.154-2.438-4.703-2.438c-0.767,0-1.458,0.285-1.987,0.843
		c-0.713,0.793-1.21,2.219,0.565,4.581c0.734,0.973,1.595,1.775,1.595,1.775l23.026,25.864c0.191,0.23,4.747,5.644,0.519,11.034
		l-0.813,1.033c-0.688,0.761-1.434,1.459-2.14,2.064c-3.929,3.223-9.176,3.568-11.254,3.568c-1.108,0-2.182-0.098-3.111-0.267
		c-2.272-0.407-3.799-1.041-4.537-1.912l-0.277-0.292c-1.261-1.3-12.867-13.147-22.472-21.164c-1.265-1.063-2.842-2.398-4.477-2.398
		c-0.807,0-1.523,0.316-2.078,0.929c-1.901,2.082,0.951,5.193,2.161,6.335l19.641,21.658c-0.021,0.19-0.27,0.637-0.745,1.321
		c-0.702,0.972-3.086,3.356-10.21,4.249c-0.854,0.115-1.735,0.159-2.606,0.159c-7.347,0-15.184-3.565-19.221-5.708
		c1.837-3.883,2.791-8.157,2.791-12.446c0.008-16.166-13.119-29.314-29.281-29.325c-0.346,0-0.713,0.011-1.059,0.021
		c0.529-7.379-0.516-21.355-14.859-27.506c-4.127-1.786-8.246-2.697-12.247-2.697c-3.134,0-6.145,0.536-8.979,1.624
		c-2.971-5.776-7.904-9.982-14.344-12.176c-3.555-1.231-7.095-1.854-10.516-1.854c-5.967,0-11.466,1.757-16.371,5.247
		c-4.699-5.845-11.798-9.306-19.273-9.306c-6.54,0-12.832,2.618-17.495,7.234c-6.111-4.667-30.362-20.073-95.264-34.81
		c-3.144-0.709-10.357-2.78-14.776-4.073c-0.731,3.516-1.292,7.066-1.66,10.649c0,0,11.971,2.866,14.326,3.396
		c66.303,14.726,88.209,30.038,91.911,32.934c-1.254,3.011-1.905,6.263-1.913,9.536c-0.007,13.695,11.132,24.853,24.842,24.863
		c1.534,0,3.058-0.134,4.556-0.41c2.063,10.079,8.661,17.722,18.741,21.644c2.945,1.13,5.928,1.714,8.852,1.714
		c1.895,0.003,3.796-0.234,5.657-0.71c1.858,4.729,6.051,10.624,15.413,14.427c3.285,1.321,6.569,2.014,9.76,2.014
		c2.607,0,5.157-0.458,7.588-1.351c4.487,10.93,15.169,18.172,27.074,18.172c7.891,0.011,15.468-3.205,20.991-8.892
		c4.732,2.629,14.715,7.386,24.802,7.4c1.308,0,2.532-0.094,3.757-0.237c10.019-1.268,14.682-5.187,16.825-8.232
		c0.385-0.529,0.734-1.096,1.029-1.682c2.366,0.68,4.967,1.234,7.944,1.242c5.474,0,10.725-1.865,16.033-5.733
		c5.215-3.76,8.92-9.158,9.453-13.753c0.011-0.062,0.021-0.13,0.028-0.198c1.758,0.363,3.563,0.551,5.362,0.551
		c5.633,0,11.175-1.757,16.469-5.226c10.213-6.698,11.988-15.441,11.819-21.168c1.786,0.375,3.612,0.565,5.427,0.565
		c5.291,0,10.48-1.592,15.432-4.746c6.331-4.045,10.142-10.242,10.718-17.452c0.396-4.901-0.817-9.846-3.403-14.095
		c17.113-7.372,56.223-21.641,102.275-32.019c-0.277-3.573-0.793-7.099-1.43-10.609C444.92,240.03,403.34,258.025,392.925,262.66z
		 M237.12,352.721c-10.821-0.011-19.619-8.42-20.016-19.137c-0.028-0.919-0.122-3.36-2.189-3.36c-0.85,0-1.588,0.512-2.438,1.278
		c-2.377,2.204-5.409,4.447-9.835,4.447c-2.006,0-4.186-0.468-6.482-1.408c-11.427-4.627-11.586-12.478-11.121-15.633
		c0.126-0.843,0.17-1.718-0.41-2.398l-0.702-0.63h-0.713c-0.58,0-1.178,0.237-1.988,0.807c-3.306,2.323-6.476,3.45-9.698,3.45
		c-1.775,0-3.594-0.356-5.416-1.059c-15.046-5.856-13.857-20.056-13.123-24.33c0.107-0.864-0.104-1.538-0.655-1.984l-1.063-0.875
		l-0.994,0.95c-2.935,2.827-6.767,4.376-10.8,4.376c-8.618-0.011-15.63-7.012-15.622-15.63c0.007-8.621,7.025-15.618,15.644-15.607
		c7.786,0,14.416,5.855,15.409,13.634l0.537,4.195l2.305-3.551c0.259-0.414,6.572-9.961,18.179-9.95
		c2.208,0,4.487,0.356,6.781,1.066c9.256,2.823,10.822,11.214,11.063,14.707c0.165,2.039,1.613,2.136,1.897,2.136
		c0.8,0,1.387-0.508,1.805-0.943c1.746-1.822,5.549-4.854,11.502-4.854c2.723,0.011,5.622,0.655,8.614,1.941
		c14.704,6.31,8.034,24.996,7.955,25.19c-1.264,3.097-1.314,4.466-0.126,5.254l0.58,0.277h0.429c0.662,0,1.487-0.288,2.849-0.749
		c2.002-0.691,5.023-1.731,7.847-1.725h0.007c11.07,0.119,20.074,9.129,20.07,20.073C257.19,343.735,248.184,352.721,237.12,352.721
		z"/>
</g>
</svg>
