<?xml version="1.0" encoding="utf-8"?>
<!-- Generator: Adobe Illustrator 16.0.0, SVG Export Plug-In . SVG Version: 6.00 Build 0)  -->
<!DOCTYPE svg PUBLIC "-//W3C//DTD SVG 1.1//EN" "http://www.w3.org/Graphics/SVG/1.1/DTD/svg11.dtd">
<svg version="1.1" id="Layer_1" xmlns="http://www.w3.org/2000/svg" xmlns:xlink="http://www.w3.org/1999/xlink" x="0px" y="0px"
	 width="512px" height="512px" viewBox="0 0 512 512" enable-background="new 0 0 512 512" xml:space="preserve">
<g>
	<path fill="#002E6D" d="M512.001,246.26c0-92.244-114.605-167.438-255.988-167.438c-141.376,0-255.98,75.193-255.98,167.438
		c0,2.38-0.033,8.964-0.033,9.803c0,97.855,100.174,177.115,255.977,177.115c156.773,0,256.025-79.239,256.025-177.097
		C512.001,252.658,512.001,250.691,512.001,246.26z"/>
	<path fill="#FFE900" d="M502.198,246.178c0,86.961-110.2,157.458-246.14,157.458c-135.942,0-246.132-70.497-246.132-157.458
		c0-86.972,110.189-157.472,246.132-157.472C391.998,88.706,502.198,159.206,502.198,246.178z"/>
	<g>
		<path fill="#FFFFFF" d="M174.331,196.497c-0.132,0.247-2.586,2.788-0.996,4.831c3.89,4.961,15.882,7.806,28.014,5.087
			c7.226-1.623,16.479-8.991,25.453-16.105c9.72-7.725,19.367-15.457,29.063-18.532c10.266-3.266,16.838-1.866,21.183-0.55
			c4.772,1.421,10.375,4.559,19.315,11.269c16.842,12.66,84.57,71.771,96.268,81.993c9.421-4.259,51.296-22.286,108.214-34.835
			c-4.94-30.341-23.403-58.099-51.394-80.832c-39.006,16.385-86.686,24.936-133.311,2.167c-0.235-0.098-25.472-12.043-50.363-11.454
			c-36.988,0.856-53.009,16.869-69.974,33.817L174.331,196.497z"/>
		<path fill="#FFFFFF" d="M389.878,270.916c-0.791-0.707-79.633-69.688-97.49-83.112c-10.335-7.749-16.085-9.729-22.121-10.496
			c-3.143-0.407-7.487,0.176-10.519,1.007c-8.309,2.26-19.172,9.525-28.816,17.172c-9.989,7.952-19.401,15.444-28.142,17.4
			c-11.157,2.502-24.789-0.451-31.009-4.657c-2.524-1.694-4.296-3.65-5.149-5.642c-2.294-5.328,1.945-9.588,2.64-10.302
			l21.754-23.53c2.524-2.523,5.074-5.049,7.681-7.536c-7.021,0.914-13.507,2.707-19.822,4.465
			c-7.881,2.217-15.462,4.323-23.133,4.322c-3.204,0-20.363-2.814-23.616-3.7c-19.689-5.388-36.967-10.635-62.78-22.683
			c-30.923,23.021-51.608,51.81-57.581,83.519c4.441,1.175,11.604,3.305,14.609,3.974c69.988,15.563,91.79,31.595,95.743,34.938
			c4.281-4.759,10.455-7.776,17.35-7.776c7.747,0.009,14.724,3.901,18.963,9.913c4.013-3.164,9.539-5.868,16.685-5.866
			c3.244,0,6.615,0.601,10.014,1.755c7.891,2.71,11.965,7.966,14.084,12.722c2.646-1.194,5.905-2.075,9.739-2.065
			c3.768,0,7.688,0.859,11.64,2.57c12.902,5.536,14.916,18.213,13.741,27.771c0.92-0.11,1.844-0.15,2.783-0.15
			c15.299,0.007,27.74,12.443,27.74,27.752c0,4.737-1.211,9.192-3.314,13.098c4.16,2.342,14.771,7.641,24.091,6.46
			c7.44-0.944,10.267-3.484,11.282-4.916c0.692-0.982,1.426-2.13,0.737-2.955l-19.744-21.939c0,0-3.254-3.074-2.179-4.265
			c1.116-1.22,3.119,0.528,4.544,1.723c10.053,8.394,22.321,21.063,22.321,21.063c0.205,0.132,1.022,1.734,5.561,2.547
			c3.91,0.699,10.817,0.297,15.609-3.631c1.206-0.996,2.413-2.242,3.423-3.515c-0.075,0.052-0.144,0.144-0.219,0.177
			c5.051-6.467-0.561-13.004-0.561-13.004l-23.057-25.889c0,0-3.291-3.049-2.177-4.276c1.006-1.063,3.126,0.542,4.567,1.743
			c7.306,6.104,17.622,16.458,27.5,26.139c1.925,1.418,10.623,6.782,22.119-0.772c6.987-4.573,8.387-10.201,8.189-14.444
			c-0.485-5.616-4.867-9.621-4.867-9.621l-31.496-31.66c0,0-3.323-2.846-2.144-4.283c0.954-1.206,3.122,0.535,4.533,1.723
			c10.035,8.394,37.196,33.29,37.196,33.29c0.377,0.275,9.763,6.955,21.36-0.426c4.148-2.65,6.797-6.648,7.021-11.287
			C395.561,275.698,389.878,270.916,389.878,270.916z"/>
		<path fill="#FFFFFF" d="M237.122,311.056c-4.884-0.06-10.228,2.843-10.928,2.422c-0.383-0.257,0.301-2.218,0.759-3.346
			c0.469-1.129,6.899-20.479-8.775-27.198c-11.996-5.154-19.323,0.643-21.848,3.261c-0.663,0.689-0.956,0.631-1.032-0.245
			c-0.241-3.479-1.798-12.908-12.158-16.063c-14.793-4.537-24.308,5.795-26.722,9.52c-1.079-8.431-8.213-14.979-16.946-14.987
			c-9.488-0.01-17.181,7.678-17.195,17.167c-0.002,9.484,7.688,17.177,17.179,17.177c4.609,0.014,8.794-1.833,11.875-4.792
			c0.096,0.085,0.136,0.25,0.085,0.577c-0.723,4.247-2.052,19.688,14.111,25.969c6.485,2.514,11.998,0.647,16.567-2.559
			c1.366-0.964,1.585-0.561,1.391,0.726c-0.585,3.972,0.154,12.47,12.071,17.299c9.068,3.683,14.434-0.092,17.95-3.338
			c1.527-1.399,1.947-1.169,2.026,0.989c0.432,11.494,9.977,20.613,21.566,20.621c11.939,0.007,21.612-9.647,21.623-21.577
			C258.731,320.735,249.058,311.188,237.122,311.056z"/>
	</g>
	<path fill="#002E6D" d="M392.922,262.661c-24.282-21.198-80.405-69.987-95.604-81.4c-8.686-6.529-14.608-9.979-19.808-11.528
		c-2.339-0.706-5.569-1.509-9.729-1.513c-3.871,0-8.021,0.698-12.355,2.079c-9.821,3.107-19.607,10.888-29.076,18.407l-0.485,0.387
		c-8.821,7.008-17.934,14.26-24.829,15.8c-3.009,0.678-6.103,1.03-9.195,1.03c-7.72-0.013-14.661-2.238-17.265-5.559
		c-0.429-0.548-0.15-1.438,0.852-2.715l0.132-0.17l21.362-23.022c16.737-16.731,32.54-32.528,68.917-33.367
		c0.603-0.017,1.218-0.025,1.82-0.025c22.641,0.014,45.277,10.151,47.817,11.326c21.235,10.353,43.149,15.615,65.184,15.635
		c22.958,0.008,46.648-5.678,71.555-17.147c-2.78-2.343-5.68-4.615-8.655-6.852c-21.882,9.487-42.729,14.282-62.835,14.274
		c-20.546-0.017-41.077-4.951-61.003-14.673c-1.051-0.502-26.046-12.286-52.05-12.3c-0.682,0-1.376,0.014-2.058,0.022
		c-30.558,0.714-47.771,11.568-59.343,21.074c-11.26,0.271-20.973,2.988-29.612,5.401c-7.711,2.143-14.372,4.004-20.868,3.997
		c-2.672,0-7.489-0.244-7.924-0.259c-7.47-0.229-45.094-9.458-75.027-20.787c-3.058,2.163-5.998,4.395-8.861,6.67
		c31.269,12.82,69.325,22.736,81.335,23.515c3.338,0.219,6.901,0.597,10.464,0.604c7.945,0,15.869-2.232,23.551-4.377
		c4.529-1.275,9.534-2.658,14.79-3.667c-1.403,1.376-2.801,2.775-4.204,4.188l-21.712,23.479c-1.712,1.724-5.413,6.328-2.972,11.996
		c0.973,2.287,2.946,4.474,5.704,6.336c5.177,3.48,14.438,5.836,23.041,5.843c3.261,0.001,6.348-0.324,9.191-0.964
		c9.096-2.042,18.641-9.64,28.75-17.679c8.057-6.404,19.504-14.529,28.268-16.916c2.445-0.669,5.449-1.079,7.871-1.079
		c0.719,0.006,1.399,0.027,2.037,0.117c5.789,0.736,11.389,2.705,21.382,10.205c17.811,13.384,96.661,82.355,97.429,83.038
		c0.062,0.045,5.082,4.382,4.73,11.591c-0.186,4.017-2.419,7.591-6.294,10.069c-3.367,2.13-6.842,3.218-10.354,3.218
		c-5.271-0.012-8.896-2.48-9.129-2.647c-0.292-0.236-27.305-25.008-37.241-33.326c-1.588-1.313-3.122-2.49-4.684-2.49
		c-0.829-0.007-1.564,0.347-2.059,0.971c-1.564,1.927,0.186,4.594,2.247,6.349l31.562,31.717c0.04,0.038,3.927,3.688,4.355,8.55
		c0.245,5.258-2.264,9.651-7.491,13.084c-3.723,2.448-7.496,3.694-11.186,3.694c-4.844,0-8.245-2.21-8.997-2.73l-4.53-4.462
		c-8.271-8.142-16.812-16.555-23.063-21.775c-1.527-1.268-3.155-2.434-4.707-2.434c-0.764,0-1.456,0.283-1.988,0.841
		c-0.717,0.794-1.207,2.22,0.567,4.582c0.728,0.971,1.59,1.776,1.59,1.776l23.031,25.858c0.193,0.23,4.749,5.643,0.516,11.039
		l-0.808,1.03c-0.69,0.766-1.438,1.465-2.142,2.059c-3.928,3.228-9.176,3.576-11.249,3.576c-1.117,0-2.188-0.099-3.124-0.264
		c-2.267-0.41-3.793-1.044-4.528-1.92l-0.282-0.283c-1.258-1.308-12.865-13.152-22.471-21.17c-1.265-1.06-2.841-2.4-4.476-2.4
		c-0.806,0-1.526,0.315-2.078,0.931c-1.903,2.085,0.956,5.192,2.163,6.335l19.643,21.655c-0.023,0.197-0.275,0.647-0.749,1.333
		c-0.704,0.964-3.086,3.346-10.213,4.25c-0.851,0.104-1.731,0.151-2.599,0.151c-7.35,0-15.183-3.564-19.224-5.709
		c1.838-3.885,2.79-8.155,2.79-12.45c0.009-16.166-13.118-29.31-29.283-29.323c-0.343,0-0.71,0.014-1.06,0.025
		c0.531-7.381-0.511-21.354-14.855-27.509c-4.124-1.788-8.245-2.695-12.247-2.695c-3.131,0-6.144,0.535-8.984,1.623
		c-2.966-5.774-7.901-9.979-14.341-12.178c-3.553-1.229-7.094-1.852-10.511-1.852c-5.969,0-11.469,1.753-16.375,5.242
		c-4.697-5.838-11.8-9.304-19.276-9.304c-6.536,0-12.831,2.62-17.492,7.235c-6.11-4.667-30.362-20.072-95.262-34.807
		c-3.144-0.712-10.358-2.781-14.779-4.074c-0.732,3.512-1.29,7.064-1.66,10.65c0,0,11.973,2.867,14.329,3.393
		c66.299,14.727,88.207,30.042,91.911,32.933c-1.253,3.011-1.906,6.264-1.913,9.541c-0.007,13.689,11.132,24.85,24.839,24.863
		c1.539,0,3.06-0.132,4.56-0.409c2.063,10.075,8.658,17.718,18.74,21.636c2.942,1.136,5.925,1.715,8.849,1.715
		c1.891,0.007,3.798-0.23,5.657-0.704c1.861,4.73,6.055,10.622,15.418,14.423c3.279,1.326,6.564,2.019,9.758,2.019
		c2.607,0,5.157-0.455,7.589-1.359c4.487,10.934,15.163,18.181,27.073,18.181c7.889,0.007,15.466-3.207,20.993-8.896
		c4.723,2.634,14.717,7.384,24.8,7.404c1.305,0,2.535-0.092,3.755-0.244c10.018-1.268,14.685-5.179,16.826-8.227
		c0.381-0.53,0.729-1.096,1.026-1.678c2.37,0.674,4.971,1.228,7.949,1.234c5.47,0,10.719-1.861,16.031-5.728
		c5.214-3.769,8.922-9.159,9.452-13.758c0.009-0.059,0.025-0.132,0.032-0.198c1.751,0.363,3.556,0.554,5.36,0.554
		c5.633,0,11.169-1.762,16.465-5.225c10.213-6.698,11.988-15.447,11.819-21.168c1.79,0.375,3.618,0.568,5.428,0.568
		c5.291,0,10.483-1.598,15.436-4.752c6.328-4.045,10.138-10.241,10.71-17.455c0.405-4.902-0.815-9.845-3.397-14.092
		c17.108-7.372,56.22-21.642,102.274-32.019c-0.275-3.57-0.791-7.096-1.43-10.606C444.92,240.031,403.339,258.025,392.922,262.661z
		 M237.122,352.716c-10.821-0.012-19.617-8.412-20.013-19.127c-0.033-0.924-0.126-3.366-2.191-3.366
		c-0.852,0-1.587,0.509-2.438,1.274c-2.378,2.21-5.41,4.448-9.834,4.448c-2.014,0-4.187-0.462-6.487-1.407
		c-11.428-4.624-11.582-12.477-11.114-15.631c0.122-0.846,0.164-1.715-0.413-2.403l-0.698-0.626h-0.716
		c-0.584,0-1.178,0.237-1.989,0.813c-3.31,2.315-6.477,3.444-9.701,3.444c-1.771,0-3.589-0.355-5.417-1.056
		c-15.043-5.858-13.853-20.06-13.121-24.336c0.113-0.862-0.104-1.536-0.655-1.981l-1.063-0.876l-0.993,0.954
		c-2.934,2.827-6.77,4.37-10.802,4.37c-8.614-0.007-15.628-7.014-15.622-15.624c0.008-8.625,7.024-15.619,15.646-15.61
		c7.786,0,14.417,5.857,15.413,13.636l0.531,4.193l2.303-3.545c0.262-0.42,6.573-9.966,18.183-9.954
		c2.206,0,4.486,0.356,6.782,1.065c9.252,2.824,10.818,11.214,11.063,14.707c0.165,2.041,1.613,2.133,1.897,2.133
		c0.799,0,1.389-0.502,1.805-0.945c1.745-1.821,5.549-4.848,11.504-4.848c2.718,0.004,5.618,0.647,8.611,1.938
		c14.708,6.309,8.037,24.995,7.957,25.193c-1.267,3.096-1.313,4.462-0.125,5.254l0.581,0.271h0.422c0.666,0,1.491-0.285,2.851-0.747
		c2.002-0.692,5.024-1.736,7.848-1.729h0.008c11.072,0.125,20.075,9.134,20.069,20.079
		C257.187,343.735,248.181,352.716,237.122,352.716z"/>
</g>
</svg>
