<?xml version="1.0" encoding="utf-8"?>
<!-- Generator: Adobe Illustrator 16.0.0, SVG Export Plug-In . SVG Version: 6.00 Build 0)  -->
<!DOCTYPE svg PUBLIC "-//W3C//DTD SVG 1.1//EN" "http://www.w3.org/Graphics/SVG/1.1/DTD/svg11.dtd">
<svg version="1.1" id="Layer_1" xmlns="http://www.w3.org/2000/svg" xmlns:xlink="http://www.w3.org/1999/xlink" x="0px" y="0px"
	 width="512px" height="512px" viewBox="0 0 512 512" enable-background="new 0 0 512 512" xml:space="preserve">
<g>
	<path fill="#253B80" d="M162.308,494.644l8.873-56.363l-19.766-0.458H57.03l65.593-415.901c0.403-2.626,2.67-4.562,5.327-4.547
		h159.146c52.834,0,89.295,10.994,108.332,32.694c8.924,10.18,14.607,20.818,17.355,32.525c2.885,12.283,2.936,26.96,0.119,44.859
		l-0.203,1.307v11.469l8.924,5.057c6.813,3.451,12.938,8.12,18.07,13.776c7.635,8.704,12.572,19.766,14.658,32.881
		c2.155,13.488,1.442,29.539-2.086,47.71c-4.072,20.903-10.655,39.108-19.546,54.005c-7.845,13.346-18.391,24.904-30.964,33.934
		c-11.809,8.382-25.84,14.743-41.704,18.815c-15.372,4.004-32.897,6.023-52.121,6.023h-12.386c-8.856,0-17.458,3.189-24.211,8.907
		c-6.743,5.779-11.217,13.764-12.623,22.532l-0.934,5.072l-15.677,99.339l-0.713,3.648c-0.187,1.154-0.509,1.73-0.984,2.121
		c-0.46,0.376-1.034,0.585-1.628,0.594H162.308z"/>
	<path fill="#179BD7" d="M430.073,130.083c-0.475,3.037-1.018,6.142-1.629,9.331c-20.986,107.755-92.789,144.979-184.494,144.979
		h-46.691c-11.215,0-20.665,8.144-22.413,19.206L150.94,455.214l-6.771,42.976c-1.03,6.516,3.416,12.633,9.932,13.664
		c0.615,0.098,1.237,0.146,1.86,0.146h82.813c9.808,0,18.138-7.126,19.682-16.797l0.814-4.208l15.593-98.948l1.001-5.43
		c1.526-9.704,9.874-16.83,19.681-16.83h12.386c80.235,0,143.045-32.576,161.403-126.843c7.668-39.38,3.698-72.261-16.594-95.386
		C446.31,140.404,438.629,134.482,430.073,130.083L430.073,130.083z"/>
	<path fill="#222D65" d="M408.119,121.328c-6.701-1.938-13.519-3.452-20.411-4.53c-13.618-2.093-27.383-3.097-41.16-3.003H221.81
		c-9.81-0.008-18.158,7.139-19.665,16.831l-26.535,168.07l-0.764,4.903c1.708-11.056,11.227-19.211,22.413-19.206h46.691
		c91.705,0,163.508-37.241,184.494-144.979c0.629-3.189,1.154-6.294,1.629-9.331c-5.537-2.904-11.31-5.339-17.254-7.278
		C411.26,122.287,409.693,121.795,408.119,121.328L408.119,121.328z"/>
	<path fill="#253B80" d="M202.145,130.626c1.494-9.697,9.854-16.845,19.665-16.813h124.738c14.777,0,28.571,0.967,41.16,3.003
		c8.52,1.339,16.921,3.341,25.127,5.989c6.193,2.053,11.945,4.479,17.256,7.278c6.244-39.82-0.051-66.934-21.582-91.484
		C384.772,11.571,341.933,0,287.113,0H127.968c-11.198,0-20.75,8.144-22.481,19.223L39.198,439.4
		c-1.181,7.46,3.909,14.464,11.369,15.645c0.701,0.111,1.409,0.167,2.119,0.169h98.254l24.669-156.518L202.145,130.626z"/>
</g>
</svg>
