<?xml version="1.0" encoding="utf-8"?>
<!-- Generator: Adobe Illustrator 16.0.0, SVG Export Plug-In . SVG Version: 6.00 Build 0)  -->
<!DOCTYPE svg PUBLIC "-//W3C//DTD SVG 1.1//EN" "http://www.w3.org/Graphics/SVG/1.1/DTD/svg11.dtd">
<svg version="1.1" id="Layer_1" xmlns="http://www.w3.org/2000/svg" xmlns:xlink="http://www.w3.org/1999/xlink" x="0px" y="0px"
	 width="512px" height="512px" viewBox="0 0 512 512" enable-background="new 0 0 512 512" xml:space="preserve">
<path fill="#359AD5" d="M466.456,228.181c-10.313,0-9.237,12.676-9.665,26.209h17.184
	C473.976,239.136,473.976,228.181,466.456,228.181z M456.792,276.519c0,12.244,6.014,14.606,16.111,14.606
	c11.602,0,27.282-3.439,33.298-4.513v29.649c-4.724,1.72-19.118,5.797-33.298,5.797c-25.565,0-56.719-4.081-56.719-58.647
	c0-48.123,24.492-59.509,50.271-59.509c26.426,0,45.545,13.535,45.545,59.079v13.537H456.792L456.792,276.519z M356.017,233.98
	c-2.36,0-7.088,1.934-9.665,3.439v54.994c1.932,0.647,5.37,1.077,6.875,1.077c7.09,0,11.387-6.016,11.387-31.15
	C364.61,236.773,362.676,233.98,356.017,233.98L356.017,233.98z M360.742,322.062c-5.156,0-10.526-1.504-14.393-2.364v41.034
	h-40.819V206.052h33.083l6.017,7.089c6.229-5.585,15.039-9.238,24.276-9.238c16.755,0,36.52,4.726,36.52,58.433
	C405.427,321.205,375.781,322.062,360.742,322.062L360.742,322.062z M267.928,192.089c-11.385,0-20.192-9.238-20.192-20.41
	c0-11.171,8.808-20.41,20.192-20.41c11.388,0,20.196,9.238,20.196,20.41C288.124,182.851,279.315,192.089,267.928,192.089
	L267.928,192.089z M247.52,319.914V206.052h40.818v113.862H247.52z M222.805,238.063c-6.445,0-11.387,2.579-13.536,3.867v77.984
	h-40.817V206.052h32.439l6.015,10.956c2.363-7.089,8.808-13.105,18.261-13.105c6.445,0,10.741,1.29,12.673,2.363v33.942
	C233.759,239.136,228.389,238.063,222.805,238.063z M145.241,291.126c2.578,0,11.602-1.287,14.606-1.719v29.002
	c-6.228,1.502-19.979,3.652-29,3.652c-11.602,0-33.299-1.287-33.299-32.868v-57.146H82.51v-25.996h15.04l5.156-25.779l35.662-8.593
	v34.373h21.483l-5.37,25.996h-16.112v49.842C138.366,289.622,140.729,291.126,145.241,291.126L145.241,291.126z M39.747,238.922
	c0,4.511,3.009,6.015,10.097,9.237l4.297,1.935c10.096,4.512,24.059,11.816,24.059,33.3c0,34.372-25.565,38.668-43.825,38.668
	c-11.816,0-24.276-2.793-32.655-5.369V287.26c7.303,1.937,19.98,4.94,25.564,4.94c6.23,0,10.957-0.857,10.957-6.444
	c0-4.297-3.008-6.229-9.667-9.236l-5.157-2.364C13.75,269.645,0,261.913,0,241.073c0-30.507,23.846-37.165,43.827-37.165
	c15.039,0,24.921,3.436,30.076,5.371v28.572c-6.016-1.932-18.259-4.511-25.563-4.511C43.398,233.337,39.747,234.625,39.747,238.922
	L39.747,238.922z"/>
</svg>
