<?xml version="1.0" encoding="utf-8"?>
<!-- Generator: Adobe Illustrator 16.0.0, SVG Export Plug-In . SVG Version: 6.00 Build 0)  -->
<!DOCTYPE svg PUBLIC "-//W3C//DTD SVG 1.1//EN" "http://www.w3.org/Graphics/SVG/1.1/DTD/svg11.dtd">
<svg version="1.1" id="Layer_1" xmlns="http://www.w3.org/2000/svg" xmlns:xlink="http://www.w3.org/1999/xlink" x="0px" y="0px"
	 width="1863.064px" height="219.188px" viewBox="-646.921 49.049 1863.064 219.188"
	 enable-background="new -646.921 49.049 1863.064 219.188" xml:space="preserve">
<g>
	<path fill-rule="evenodd" clip-rule="evenodd" fill="#F9F9F9" d="M452.636,125.143c-6.162,16.538-11.977,32.18-17.817,47.813
		c-10.58,28.312-21.279,56.579-31.653,84.966c-1.587,4.343-3.378,6.047-8.283,6.166c-5.022,0.123-5.593-2.784-6.795-6.039
		c-15.706-42.529-31.44-85.047-47.179-127.563c-0.514-1.388-1.146-2.731-2.258-5.356c-0.163,2.347-0.31,3.474-0.311,4.601
		c-0.012,35.486-0.021,70.972,0.016,106.457c0.002,2.487,0.205,4.995,0.564,7.457c1.087,7.454,3.883,10.611,11.402,11.646
		c3.816,0.524,4.289,2.208,4.265,5.492c-0.03,4.033-2.688,3.021-4.802,3.029c-12.328,0.048-24.656,0.014-36.985,0.032
		c-2.039,0.004-4.236,0.327-3.803-2.873c0.293-2.159-1.221-4.732,2.889-5.528c9.491-1.839,12.912-6.123,12.942-15.933
		c0.109-36.151,0.113-72.304,0.002-108.455c-0.03-9.993-2.734-13.069-12.657-14.287c-4.085-0.502-2.942-2.969-3.206-5.245
		c-0.349-3.004,1.393-3.099,3.648-3.092c17.493,0.054,34.987,0.15,52.478-0.073c3.489-0.044,4.089,1.939,4.967,4.304
		c11.669,31.451,23.344,62.899,35.06,94.332c0.547,1.468,0.58,3.291,2.526,4.42c7.512-19.96,14.973-39.79,22.44-59.619
		c4.976-13.209,10.04-26.386,14.874-39.647c1.007-2.762,2.296-3.789,5.317-3.762c16.826,0.156,33.652,0.069,50.479,0.083
		c2.078,0.002,4.531-0.636,4.262,3c-0.194,2.608,0.523,4.931-3.691,5.331c-9.363,0.887-12.144,4.176-12.161,13.553
		c-0.068,36.818-0.073,73.638,0.007,110.456c0.022,10.095,2.663,13.256,12.906,14.757c4.355,0.639,2.521,3.392,2.867,5.465
		c0.453,2.724-1.328,2.83-3.372,2.827c-20.491-0.036-40.983-0.06-61.475,0.026c-2.452,0.011-3.441-0.817-3.019-3.151
		c0.348-1.916-1.502-4.87,2.628-5.058c8.309-0.375,13.297-4.451,13.334-15.289c0.125-37.65,0.063-75.302,0.059-112.954
		C453.101,127.011,452.937,126.591,452.636,125.143z"/>
	<path fill-rule="evenodd" clip-rule="evenodd" fill="#F9F9F9" d="M-366.534,136.722c0,34.764-0.169,68.05,0.094,101.331
		c0.09,11.339,4.194,15.692,15.68,17.494c4.313,0.677,2.556,3.319,2.904,5.397c0.439,2.62-1.104,2.93-3.256,2.92
		c-13.826-0.063-27.653-0.033-41.48-0.03c-1.669,0.001-3.735,0.254-3.255-2.334c0.378-2.04-1.828-4.892,2.313-5.923
		c10.398-2.59,13.691-6.859,13.715-17.607c0.08-35.482,0.07-70.967,0.014-106.449c-0.016-10.115-2.825-13.498-12.857-14.727
		c-4.021-0.492-3.05-2.857-3.291-5.191c-0.298-2.894,1.217-3.192,3.575-3.182c15.659,0.072,31.32,0.138,46.977-0.047
		c3.125-0.037,4.356,1.726,5.83,3.771c25.202,34.968,50.426,69.919,75.647,104.874c1.071,1.484,2.149,2.963,3.239,4.462
		c1.557-0.711,0.826-2.053,0.828-3.042c0.045-27.654,0.034-55.308,0.031-82.962c0-0.666-0.011-1.332-0.03-1.998
		c-0.318-10.911-4.184-15.525-15.04-16.625c-4.211-0.427-3.96-2.544-4.065-5.51c-0.132-3.74,2.375-2.862,4.357-2.868
		c13.326-0.035,26.654-0.025,39.981-0.011c1.908,0.002,4.238-0.604,3.986,2.728c-0.188,2.484,0.879,5.086-3.373,5.703
		c-8.024,1.164-10.789,4.247-12.068,12.259c-0.469,2.941-0.6,5.962-0.604,8.946c-0.04,33.151-0.008,66.303-0.038,99.453
		c-0.008,7.675,0.416,15.328,1.41,22.921c0.373,2.849-0.379,3.442-2.994,3.399c-7.495-0.121-14.999-0.216-22.486,0.043
		c-3.007,0.104-3.999-1.812-5.343-3.653c-28.567-39.108-57.132-78.219-85.703-117.324
		C-363.092,141.223-364.401,139.542-366.534,136.722z"/>
	<path fill-rule="evenodd" clip-rule="evenodd" fill="#F9F9F9" d="M581.286,263.833c-19.993,0-39.985,0.009-59.978-0.012
		c-2.189-0.002-4.805,0.827-4.695-3.133c0.08-2.887,0.02-4.776,3.853-5.294c8.284-1.119,10.805-3.917,12.043-12.127
		c0.419-2.783,0.477-5.64,0.479-8.463c0.03-33.987,0.029-67.975,0.015-101.962c-0.005-11.646-1.966-14.199-13.502-16.152
		c-3.838-0.649-2.538-3.077-2.806-5.135c-0.383-2.945,1.403-3.131,3.675-3.125c18.992,0.049,37.985,0.027,56.978,0.027
		c20.66,0,41.32,0.131,61.976-0.107c4.298-0.049,5.289,1.276,5.135,5.32c-0.31,8.151-0.123,16.323-0.071,24.487
		c0.014,2.185-0.009,4.225-3.049,3.663c-2.355-0.436-5.636,1.756-6.321-3.17c-2.049-14.734-7.776-19.527-22.529-19.569
		c-13.162-0.037-26.326,0.119-39.484-0.095c-3.392-0.056-4.059,1.028-4.029,4.175c0.153,15.992,0.144,31.988,0.007,47.98
		c-0.025,3.071,0.515,4.447,4,4.229c5.145-0.322,10.323-0.046,15.488-0.091c11.994-0.104,15.444-3.138,17.823-14.967
		c0.391-1.938-0.889-5.233,3.386-5.327c6.396-0.141,6.392-0.375,6.392,6.22c0,14.161-0.034,28.322,0.033,42.484
		c0.012,2.407-0.022,4.473-3.28,3.863c-2.316-0.435-6.044,1.818-5.993-3.308c0.021-2.289-0.573-4.631-1.182-6.87
		c-1.878-6.913-5.714-10.102-12.854-10.338c-6.99-0.232-13.994-0.029-20.988-0.18c-2.215-0.047-2.814,0.703-2.802,2.853
		c0.098,16.327-0.058,32.656,0.174,48.98c0.103,7.225,3.186,10.961,10.453,11.635c13.594,1.26,27.308,1.762,40.825-0.66
		c12.141-2.176,18.624-10.714,22.317-21.835c1.449-4.366,4.96-6.048,9.241-4.796c1.896,0.554,1.166,1.776,0.996,2.702
		c-2.209,11.937-4.582,23.844-6.701,35.796c-0.574,3.24-2.792,2.259-4.546,2.264C621.604,263.854,601.444,263.833,581.286,263.833z"
		/>
	<path fill-rule="evenodd" clip-rule="evenodd" fill="#F9F9F9" d="M-57.381,241.309c0-6.328-0.104-12.661,0.067-18.984
		c0.049-1.788-1.717-4.938,1.992-4.982c2.863-0.034,6.182-1.723,7.722,3.509c4.78,16.243,15.663,27.128,31.696,32.622
		c8.892,3.049,17.981,3.323,26.995,0.447c10.445-3.331,17.113-11.968,17.888-22.912c0.53-7.475-2.724-13.182-8.487-17.638
		c-7.198-5.563-15.628-8.745-23.899-12.206c-7.968-3.335-16.007-6.504-23.516-10.83c-19.143-11.028-27.587-26.671-24.578-45.517
		c3.129-19.587,17.63-34.298,38.086-38.719c13.101-2.83,25.789-1.404,38.179,3.469c2.627,1.033,5.24,2.109,7.902,3.044
		c5.871,2.06,7.913,1.403,10.093-4.301c1.71-4.476,5.045-1.825,7.563-2.222c2.828-0.444,1.764,2.231,1.796,3.578
		c0.302,12.487,0.507,24.979,0.658,37.469c0.018,1.441,0.932,3.978-1.743,3.728c-2.628-0.246-6.283,2.153-7.764-2.101
		c-1.593-4.579-3.493-9.017-6.247-12.988c-9.738-14.038-22.685-21.764-40.28-19.771c-9.753,1.104-17.175,7.28-19.26,15.682
		c-2.116,8.529,1.219,16.254,9.727,22.257c7.681,5.419,16.481,8.564,25.07,12.122c8.138,3.37,16.256,6.762,23.849,11.29
		c16.641,9.927,25.394,24.3,23.72,43.896c-1.73,20.263-12.416,34.453-31.316,41.925c-17.976,7.106-36.09,6.573-54.009-0.609
		c-3.699-1.483-7.3-3.214-11.027-4.613c-5.468-2.053-8.981-0.89-10.767,4.468c-1.585,4.756-5.003,2.839-7.712,2.902
		c-3.428,0.079-1.834-2.968-1.886-4.529c-0.218-6.488-0.092-12.988-0.092-19.484C-57.101,241.309-57.24,241.309-57.381,241.309z"/>
	<path fill-rule="evenodd" clip-rule="evenodd" fill="#F9F9F9" d="M-148.773,238.985c-15.357-0.422-32.014-4.17-46.354-15.124
		c-14.142-10.802-19.265-26.257-13.497-40.337c3.185-7.776,8.708-13.678,15.472-18.504c25.284-18.043,68.004-18.15,93.352-0.128
		c10.179,7.237,17.561,16.398,17.921,29.537c0.351,12.782-6.315,22.074-15.911,29.556
		C-110.134,233.611-128.002,239.01-148.773,238.985z"/>
	<path fill-rule="evenodd" clip-rule="evenodd" fill="#F9F9F9" d="M-554.017,231.656c4.13-11.247,7.835-21.345,11.547-31.439
		c7.625-20.733,15.259-41.466,22.877-62.202c0.686-1.869,1.341-3.753,1.916-5.659c3.001-9.944,0.443-13.948-9.842-15.395
		c-2.465-0.347-4.87-0.124-4.708-4.076c0.138-3.374,0.854-4.573,4.452-4.511c12.66,0.217,25.327,0.062,37.991,0.109
		c1.786,0.007,4.458-0.895,4.071,2.547c-0.26,2.301,1.506,5.408-2.938,6.091c-7.312,1.122-10.758,6.563-13.205,12.903
		c-9.627,24.948-19.297,49.882-28.934,74.826c-7.063,18.283-14.168,36.552-21.085,54.89c-1.174,3.112-2.651,4.398-6.121,4.187
		c-5.644-0.347-11.339-0.326-16.986-0.008c-3.427,0.193-4.834-1.011-6.024-4.19c-12.456-33.29-25.1-66.512-37.695-99.752
		c-3.943-10.406-7.964-20.784-11.813-31.226c-2.368-6.424-6.318-10.95-13.416-11.821c-4.489-0.551-2.511-3.869-2.793-6.128
		c-0.391-3.132,2.114-2.315,3.742-2.318c21.163-0.038,42.325-0.016,63.488-0.04c2.1-0.003,4.191-0.209,3.713,2.948
		c-0.321,2.12,1.358,5.309-3.052,5.162c-1.797-0.061-3.667,0.334-5.414,0.835c-4.311,1.234-6.716,3.962-6.676,8.705
		c0.036,4.27,1.422,8.17,2.84,12.069C-576.9,168.912-565.685,199.649-554.017,231.656z"/>
	<path fill-rule="evenodd" clip-rule="evenodd" fill="#F9F9F9" d="M990.376,104.621c9.915-0.013,19.532,1.547,28.837,5.073
		c3.089,1.17,6.341,1.965,9.573,2.681c4.014,0.89,7.069-0.186,7.446-4.859c0.368-4.558,3.77-2.52,6.023-2.934
		c2.614-0.48,2.901,1.184,3.058,3.249c1.032,13.613,2.133,27.221,3.269,40.827c0.128,1.535,0.058,2.857-1.842,2.579
		c-2.654-0.391-6.122,1.793-7.649-2.461c-1.92-5.348-4.667-10.291-8.002-14.887c-11.08-15.267-28.769-21.731-46.154-16.803
		c-10.889,3.087-18.571,10.228-23.826,19.954c-9.528,17.635-10.956,36.771-9.607,56.28c0.761,10.997,2.89,21.733,7.435,31.891
		c11.137,24.887,35.813,33.604,60.119,21.189c9.649-4.929,17.592-11.983,24.459-20.233c2.218-2.663,3.589-3.45,6.5-0.723
		c4.938,4.629,5.188,4.453,0.933,9.67c-10.76,13.19-22.708,25.01-39.56,29.985c-33.849,9.992-84.438-2.751-98.105-57.826
		c-10.063-40.541,9.884-81.356,46.457-96.724C969.085,106.623,980.063,104.485,990.376,104.621z"/>
	<path fill-rule="evenodd" clip-rule="evenodd" fill="#F9F9F9" d="M879.424,186.067c0,17.496-0.023,34.99,0.008,52.486
		c0.021,11.93,2.258,14.855,14.096,17.039c4.059,0.749,2.073,3.361,2.47,5.237c0.517,2.443-0.769,3.054-3.09,3.045
		c-20.829-0.073-41.657-0.059-62.484-0.018c-2.066,0.004-3.813-0.131-3.322-2.834c0.371-2.04-1.557-4.812,2.81-5.46
		c10.971-1.627,13.399-4.741,13.41-15.899c0.036-35.824,0.021-71.649,0-107.474c-0.002-3.653,0.105-7.351-1.869-10.678
		c-2.484-4.187-6.727-4.814-10.881-4.813c-4.484,0.003-3.289-2.903-3.529-5.367c-0.314-3.234,1.802-2.883,3.828-2.882
		c20.494,0.011,40.989,0.02,61.484-0.012c2.137-0.003,4.157-0.144,3.684,2.983c-0.323,2.141,1.235,4.776-3.057,5.262
		c-11.323,1.282-13.441,3.826-13.521,15.396C879.334,150.076,879.426,168.071,879.424,186.067z"/>
	<path fill-rule="evenodd" clip-rule="evenodd" fill="#F9F9F9" d="M-443.034,263.833c-9.997,0-19.994-0.024-29.99,0.019
		c-2.28,0.01-4.443,0.24-4.102-3.183c0.233-2.341-0.687-4.625,3.293-5.188c10.207-1.443,13.008-4.975,13.02-15.297
		c0.041-35.987,0.036-71.977,0.005-107.964c-0.01-11.513-1.928-13.941-13.34-15.553c-3.854-0.545-2.707-2.859-2.959-4.962
		c-0.334-2.773,1.059-3.296,3.514-3.288c20.66,0.071,41.32,0.077,61.979-0.006c2.582-0.01,3.682,0.749,3.459,3.404
		c-0.187,2.224,0.688,4.77-3.14,4.786c-11.921,0.053-13.539,6.878-13.513,15.979c0.101,35.487,0.037,70.977,0.044,106.465
		c0.002,11.313,2.522,14.691,13.532,16.465c4.152,0.669,2.794,3.208,3.042,5.414c0.352,3.13-1.758,2.928-3.854,2.922
		C-422.374,263.815-432.704,263.833-443.034,263.833z"/>
	<path fill-rule="evenodd" clip-rule="evenodd" fill="#F9F9F9" d="M-225.977,176.097c2.668,34.134,28.632,62.29,63.605,67.77
		c33.589,5.265,61.896-4.416,82.607-32.365c8.735-11.788,12.527-25.397,12.788-40.104c3.201,8.679,3.948,17.649,2.66,26.67
		c-4.968,34.797-32.52,62.099-67.765,66.882c-33.76,4.581-62.389-5.161-83.395-32.686c-13.083-17.145-17.015-36.869-12.159-58.104
		C-225.772,173.683-226.694,175.591-225.977,176.097z"/>
	<path fill-rule="evenodd" clip-rule="evenodd" fill="#F9F9F9" d="M-74.336,189.358c-1.747-43.127-39.825-68.228-76.44-66.177
		c-37.322,2.092-67.736,30.167-67.816,66.516c-2.6-6.479-3.285-13.307-2.716-20.198c2.553-30.967,23.667-54.784,55.43-62.757
		c30.669-7.697,63.561,3.575,81.376,28.212C-72.628,151.376-69.098,169.558-74.336,189.358z"/>
	<path fill-rule="evenodd" clip-rule="evenodd" fill="#F9F9F9" d="M568.248,90.212c4.176-5.259,8.043-10.174,11.959-15.053
		c5.405-6.737,10.738-13.537,16.314-20.13c3.201-3.785,7.191-6.552,12.536-5.879c4.898,0.614,9.049,2.614,10.551,7.76
		c1.456,4.991-0.232,9.159-4.21,12.388c-1.281,1.04-2.714,1.908-4.127,2.773c-7.217,4.416-14.712,8.436-21.6,13.314
		C583.336,89.873,576.756,91.842,568.248,90.212z"/>
	<path fill-rule="evenodd" clip-rule="evenodd" fill="#575455" d="M-225.977,176.097c-0.554-0.646-1.106-1.291-1.659-1.938
		c0.332-1.368,0.664-2.737,0.996-4.106c0.221,0.017,0.441,0.033,0.663,0.049C-225.977,172.101-225.977,174.098-225.977,176.097z"/>
	<path fill-rule="evenodd" clip-rule="evenodd" fill="#F9F9F9" d="M815.347,255.345c-5.721-1.568-9.587-5.456-12.519-10.135
		c-11.985-19.13-23.737-38.406-35.773-57.95c6.028-2.29,11.678-4.222,16.753-7.437c22.334-14.151,23.386-45.016,1.991-60.623
		c-8.872-6.475-19.077-9.526-29.855-10.09c-28.47-1.49-56.974-0.342-85.463-0.619c-2.228-0.021-5.066-1.148-5.162,3.215
		c-0.08,3.642,0.979,4.813,4.595,5.175c9.054,0.907,12.111,4.333,12.123,13.151c0.049,36.993,0.053,73.987-0.008,110.98
		c-0.016,9.249-3.316,13.254-12.387,14.343c-3.905,0.469-4.308,2.15-4.289,5.419c0.023,4.008,2.675,3.033,4.801,3.037
		c19.83,0.036,39.659,0.048,59.489-0.022c1.828-0.007,4.587,1.264,4.579-2.605c-0.006-3.126,0.355-5.454-4.231-5.883
		c-8.162-0.763-11.612-4.611-11.76-12.745c-0.28-15.492-0.124-30.992-0.128-46.489c-0.001-0.953-0.313-2.047,0.654-2.764
		c2.468-1.828,12.587,0.471,14.186,3.23c12.335,21.294,24.687,42.58,36.956,63.912c1.255,2.185,2.461,3.503,5.322,3.464
		c12.828-0.175,25.66-0.063,38.491-0.095c1.53-0.004,3.812,0.622,3.542-2.07C817.033,259.535,818.955,256.335,815.347,255.345z
		 M760.597,153.599c-1.395,17.393-13.481,27.9-30.912,28.166c-11.596,0.177-11.596,0.177-11.596-11.56c0-6.659,0-13.319,0-19.979
		c0-8.824,0.253-17.659-0.111-26.469c-0.172-4.14,1.277-5.139,4.996-4.734c2.468,0.269,4.988,0.048,7.486,0.053
		C753.805,119.129,762.1,134.847,760.597,153.599z"/>
	<path fill-rule="evenodd" clip-rule="evenodd" fill="#F9F9F9" d="M1216.103,258.98c-0.165-2.232-0.707-3.253-2.919-3.612
		c-3.829-0.622-6.658-2.932-8.901-5.959c-2.796-3.771-4.592-8.068-6.343-12.392c-16.775-41.404-33.601-82.79-50.302-124.226
		c-1.281-3.178-2.789-4.679-6.457-4.43c-5.474,0.37-11.01,0.385-16.48,0.001c-4.118-0.288-6.059,1.158-7.646,4.977
		c-18.543,44.63-37.313,89.163-55.897,133.774c-1.877,4.506-4.364,8.041-9.412,8.464c-4.257,0.356-2.681,3.255-2.949,5.419
		c-0.398,3.217,1.851,2.843,3.862,2.842c12.828-0.012,25.663-0.206,38.483,0.107c4.25,0.104,4.812-1.489,4.815-5.135
		c0.004-4.414-3.315-3.006-5.271-3.36c-9.931-1.802-12.932-5.463-10.429-15.132c2.073-8.012,5.308-15.722,7.992-23.578
		c0.617-1.807,1.959-1.923,3.56-1.92c18.16,0.029,36.321,0.026,54.48,0.004c1.582-0.002,2.903,0.092,3.594,1.898
		c3.317,8.688,7.058,17.231,9.968,26.051c2.165,6.561-1.006,10.939-7.838,12.332c-1.304,0.266-2.651,0.71-3.938,0.6
		c-4.198-0.358-3.169,2.576-3.406,4.919c-0.341,3.37,1.733,3.243,4.062,3.231c10.496-0.054,20.992-0.023,31.488-0.023
		c10.33,0,20.665-0.201,30.985,0.102C1215.197,264.051,1216.389,262.87,1216.103,258.98z M1094.474,201.762
		c8.31-21.368,16.519-42.479,25.145-64.659c8.337,22.048,16.323,43.167,24.452,64.659
		C1127.483,201.762,1111.313,201.762,1094.474,201.762z"/>
	<path fill-rule="evenodd" clip-rule="evenodd" fill="#F9F9F9" d="M300.593,259.37c-0.095-2.394-0.63-3.717-3.131-4.047
		c-2.374-0.313-4.364-1.554-6.119-3.147c-4.061-3.689-6.274-8.523-8.284-13.474c-16.992-41.849-34.037-83.676-50.865-125.59
		c-1.509-3.759-3.359-5.001-7.275-4.744c-5.475,0.357-11,0.295-16.482,0.016c-3.48-0.178-5.184,0.899-6.582,4.271
		c-18.52,44.633-37.258,89.175-55.837,133.782c-1.98,4.755-4.461,8.775-9.994,9.206c-4.401,0.342-2.479,3.399-2.789,5.452
		c-0.501,3.32,1.991,2.729,3.905,2.731c12.993,0.013,25.989-0.101,38.979,0.082c3.277,0.046,4.025-0.9,4.235-4.147
		c0.269-4.126-2.138-3.949-4.78-4.353c-10.771-1.646-13.546-5.611-10.544-16.082c2.146-7.488,5.102-14.742,7.56-22.146
		c0.657-1.981,1.813-2.378,3.693-2.373c18.157,0.054,36.314,0.031,54.473,0.034c1.499,0,2.812-0.063,3.536,1.877
		c3.371,9.021,7.156,17.893,10.307,26.986c1.676,4.835-0.773,8.937-5.646,10.653c-2.169,0.765-4.544,1.396-6.807,1.343
		c-4.478-0.106-2.728,3.041-3.059,5.135c-0.483,3.057,1.456,3.034,3.647,3.022c10.66-0.057,21.322-0.025,31.982-0.025
		c10.495,0,20.994-0.159,31.482,0.087C299.84,264.005,300.727,262.75,300.593,259.37z M178.922,201.687
		c8.234-21.13,16.447-42.204,25.179-64.61c8.423,22.331,16.311,43.242,24.37,64.61C211.82,201.687,195.641,201.687,178.922,201.687z
		"/>
</g>
</svg>
